<svg id="Layer_2" data-name="Layer 2" xmlns="http://www.w3.org/2000/svg" viewBox="0 0 137.85 45"><defs><style>.cls-1{fill:#fff;}</style></defs><title>logo</title><polygon class="cls-1" points="27.18 23.73 27.38 21.11 30.46 19.57 32.14 16.15 25.23 17.96 27.18 23.73"/><polygon class="cls-1" points="14.83 19.57 17.92 21.11 18.12 23.73 20.06 17.96 13.15 16.15 14.83 19.57"/><path class="cls-1" d="M32.8,0H26.41L24.84,2.43,23.16,0H16.34L2,13.44,6,33.3,20.12,45h9.06L43.27,33.22l4-19.78Zm-3,36.88-5,2.15-5.54-2.21-0.47-.74,6-2.28L30.32,36ZM33.54,29L30,26l2.89,4-2.19,4.83L25,33.19V31.51l3.78-2.68L27.1,23.31,27.77,28H21.53l0.6-4.77-1.88,5.55L24,31.51v1.68l-5.68,1.68-2.09-4.7L19,26,15.81,28.9,11.09,18l7-8.41,6.73,1.33,6.41-1.28,7,8.18Z" transform="translate(-2)"/><path class="cls-1" d="M69.87,37.34H53.22L59.55,7.49h5.2L59.34,32.95H70.79Z" transform="translate(-2)"/><path class="cls-1" d="M92.77,21.27a6,6,0,0,1-3.58,5.67q-3.58,1.82-10.87,1.9l0,0.23v0.42a4.36,4.36,0,0,0,1.29,3.36,5.09,5.09,0,0,0,3.6,1.2,11.18,11.18,0,0,0,3.38-.57A15.62,15.62,0,0,0,89.85,32L89,36.15a14.29,14.29,0,0,1-6.93,1.71,8.76,8.76,0,0,1-6.46-2.31A8.79,8.79,0,0,1,73.31,29a14.9,14.9,0,0,1,1.58-6.78,12.23,12.23,0,0,1,4.41-5,11.33,11.33,0,0,1,6.2-1.8,8.2,8.2,0,0,1,5.31,1.58A5.11,5.11,0,0,1,92.77,21.27Zm-4.87.12a2,2,0,0,0-.76-1.65A3.24,3.24,0,0,0,85,19.13a5.5,5.5,0,0,0-4,1.81,8.78,8.78,0,0,0-2.35,4.45Q87.9,25.39,87.9,21.4Z" transform="translate(-2)"/><path class="cls-1" d="M115.54,24.21A16,16,0,0,1,114,31.27a11.48,11.48,0,0,1-4.29,4.89,11.74,11.74,0,0,1-6.32,1.7,8.51,8.51,0,0,1-6.32-2.31,8.66,8.66,0,0,1-2.3-6.39,15.76,15.76,0,0,1,1.55-7,11.75,11.75,0,0,1,4.28-4.89,11.57,11.57,0,0,1,6.33-1.73,8.52,8.52,0,0,1,6.29,2.32A8.6,8.6,0,0,1,115.54,24.21Zm-5.08.13a5.57,5.57,0,0,0-1-3.54,3.43,3.43,0,0,0-2.86-1.31,5.19,5.19,0,0,0-3.43,1.3,8.71,8.71,0,0,0-2.42,3.53,12.8,12.8,0,0,0-.88,4.77,5.41,5.41,0,0,0,1.05,3.53,3.51,3.51,0,0,0,2.86,1.28,5.29,5.29,0,0,0,3.49-1.3,8.34,8.34,0,0,0,2.39-3.53A13.24,13.24,0,0,0,110.46,24.33Z" transform="translate(-2)"/><path class="cls-1" d="M139.85,21.23a24.91,24.91,0,0,1-.64,4.12l-2.54,12h-5L134.21,25a22.57,22.57,0,0,0,.42-2.73,3,3,0,0,0-.66-2,2.3,2.3,0,0,0-1.86-.78,5,5,0,0,0-2.84,1.05,10.24,10.24,0,0,0-2.67,2.82,10.37,10.37,0,0,0-1.54,3.52l-2.23,10.47h-5.08L121,22.44q0.75-3.58,1.1-6.41H127q-0.17,1.77-.65,4.58h0.08a13,13,0,0,1,3.8-3.77,8,8,0,0,1,4.24-1.33,5.24,5.24,0,0,1,4,1.48A5.93,5.93,0,0,1,139.85,21.23Z" transform="translate(-2)"/></svg>